<?xml version="1.0" encoding="UTF-8"?>
<!DOCTYPE svg PUBLIC "-//W3C//DTD SVG 1.1//EN" "http://www.w3.org/Graphics/SVG/1.1/DTD/svg11.dtd">
<svg xmlns="http://www.w3.org/2000/svg" version="1.1" width="731px" height="341px" style="shape-rendering:geometricPrecision; text-rendering:geometricPrecision; image-rendering:optimizeQuality; fill-rule:evenodd; clip-rule:evenodd" xmlns:xlink="http://www.w3.org/1999/xlink">
<g><path style="opacity:0.498" fill="#aee0a2" d="M 158.5,52.5 C 153.364,52.4334 148.364,53.1 143.5,54.5C 144.681,52.9328 146.347,52.0995 148.5,52C 152.027,51.1925 155.36,51.3592 158.5,52.5 Z"/></g>
<g><path style="opacity:1" fill="#62c455" d="M 158.5,52.5 C 158.833,52.5 159.167,52.5 159.5,52.5C 162.146,55.1457 164.812,57.8123 167.5,60.5C 170.042,64.334 172.042,68.334 173.5,72.5C 173.5,72.8333 173.5,73.1667 173.5,73.5C 172.444,76.3307 172.444,79.3307 173.5,82.5C 172.129,84.6811 171.129,87.0144 170.5,89.5C 169.25,89.5774 168.417,90.244 168,91.5C 165.956,96.571 166.123,101.571 168.5,106.5C 170.304,107.768 172.304,108.435 174.5,108.5C 174.414,109.496 174.748,110.329 175.5,111C 179.422,113.11 183.422,114.943 187.5,116.5C 187.5,117.5 187.5,118.5 187.5,119.5C 188.959,119.433 190.292,119.766 191.5,120.5C 192.275,125.797 192.608,131.13 192.5,136.5C 165.833,136.5 139.167,136.5 112.5,136.5C 112.334,132.154 112.501,127.821 113,123.5C 114.546,122.497 114.713,121.497 113.5,120.5C 113.842,119.662 114.508,119.328 115.5,119.5C 118.939,117.076 122.439,114.742 126,112.5C 131.791,111.721 135.625,108.721 137.5,103.5C 137.605,99.4517 137.272,95.4517 136.5,91.5C 135.962,89.8828 135.629,88.2161 135.5,86.5C 136.022,79.1741 136.522,71.8407 137,64.5C 139.639,61.5505 141.473,58.2171 142.5,54.5C 142.833,54.5 143.167,54.5 143.5,54.5C 148.364,53.1 153.364,52.4334 158.5,52.5 Z"/></g>
<g><path style="opacity:0.98" fill="#8ccf7d" d="M 159.5,52.5 C 164.742,54.7171 169.242,58.0504 173,62.5C 173.498,65.8168 173.665,69.1501 173.5,72.5C 172.042,68.334 170.042,64.334 167.5,60.5C 164.812,57.8123 162.146,55.1457 159.5,52.5 Z"/></g>
<g><path style="opacity:0.992" fill="#85d076" d="M 142.5,54.5 C 141.473,58.2171 139.639,61.5505 137,64.5C 136.522,71.8407 136.022,79.1741 135.5,86.5C 135.42,79.5068 135.087,72.5068 134.5,65.5C 135.946,60.9391 138.613,57.2724 142.5,54.5 Z"/></g>
<g><path style="opacity:0.624" fill="#95d18b" d="M 134.5,65.5 C 135.087,72.5068 135.42,79.5068 135.5,86.5C 135.629,88.2161 135.962,89.8828 136.5,91.5C 133.435,88.993 132.102,85.6597 132.5,81.5C 132.875,75.9827 133.542,70.6493 134.5,65.5 Z"/></g>
<g><path style="opacity:0.584" fill="#a2d895" d="M 173.5,73.5 C 174.368,77.8076 174.534,82.141 174,86.5C 172.187,89.7847 170.687,93.1181 169.5,96.5C 168.957,96.44 168.624,96.1067 168.5,95.5C 169.372,93.5504 170.039,91.5504 170.5,89.5C 171.129,87.0144 172.129,84.6811 173.5,82.5C 172.444,79.3307 172.444,76.3307 173.5,73.5 Z"/></g>
<g><path style="opacity:0.527" fill="#8fd180" d="M 170.5,89.5 C 170.039,91.5504 169.372,93.5504 168.5,95.5C 168.624,96.1067 168.957,96.44 169.5,96.5C 168.312,101.431 169.978,104.764 174.5,106.5C 174.5,107.167 174.5,107.833 174.5,108.5C 172.304,108.435 170.304,107.768 168.5,106.5C 166.123,101.571 165.956,96.571 168,91.5C 168.417,90.244 169.25,89.5774 170.5,89.5 Z"/></g>
<g><path style="opacity:0.989" fill="#343534" d="M 390.5,107.5 C 390.427,109.027 391.094,110.027 392.5,110.5C 398.896,118.253 401.229,127.253 399.5,137.5C 401.195,147.953 398.862,157.286 392.5,165.5C 391.167,165.5 389.833,165.5 388.5,165.5C 388.297,167.638 387.297,169.305 385.5,170.5C 385.624,171.107 385.957,171.44 386.5,171.5C 391.644,183.961 396.811,196.627 402,209.5C 402.497,211.81 402.663,214.143 402.5,216.5C 397.833,216.5 393.167,216.5 388.5,216.5C 387.312,214.012 385.979,211.678 384.5,209.5C 384.414,208.504 384.748,207.671 385.5,207C 384.309,206.302 383.309,205.469 382.5,204.5C 378.453,194.423 374.453,184.423 370.5,174.5C 366.833,173.167 363.167,173.167 359.5,174.5C 359.667,188.171 359.5,201.837 359,215.5C 354,216.833 349,216.833 344,215.5C 343.333,185.167 343.333,154.833 344,124.5C 348.527,105.642 360.36,98.1419 379.5,102C 383.527,103.172 387.194,105.005 390.5,107.5 Z M 366.5,117.5 C 372.084,116.525 376.917,117.858 381,121.5C 384.469,132.581 384.303,143.581 380.5,154.5C 378.829,156.978 376.496,158.478 373.5,159C 368.845,159.499 364.179,159.666 359.5,159.5C 359.333,148.495 359.5,137.495 360,126.5C 361.211,122.721 363.377,119.721 366.5,117.5 Z"/></g>
<g><path style="opacity:0.966" fill="#383838" d="M 570.5,215.5 C 570.522,178.345 570.522,141.011 570.5,103.5C 572.641,102.837 574.975,102.503 577.5,102.5C 580.287,102.574 582.787,103.24 585,104.5C 585.667,141.5 585.667,178.5 585,215.5C 580.067,216.824 575.234,216.824 570.5,215.5 Z"/></g>
<g><path style="opacity:0.137" fill="#b4b6b4" d="M 390.5,107.5 C 391.906,107.973 392.573,108.973 392.5,110.5C 391.094,110.027 390.427,109.027 390.5,107.5 Z"/></g>
<g><path style="opacity:0.761" fill="#92d285" d="M 137.5,103.5 C 135.625,108.721 131.791,111.721 126,112.5C 122.439,114.742 118.939,117.076 115.5,119.5C 116.96,117.537 118.627,115.704 120.5,114C 126.052,110.275 131.718,106.775 137.5,103.5 Z"/></g>
<g><path style="opacity:0.737" fill="#97ce8d" d="M 174.5,106.5 C 181.4,110.56 187.9,115.227 194,120.5C 195.095,124.77 195.928,129.104 196.5,133.5C 196.376,134.107 196.043,134.44 195.5,134.5C 194.679,131.359 194.179,128.025 194,124.5C 193.392,122.934 192.558,121.6 191.5,120.5C 190.292,119.766 188.959,119.433 187.5,119.5C 187.5,118.5 187.5,117.5 187.5,116.5C 183.422,114.943 179.422,113.11 175.5,111C 174.748,110.329 174.414,109.496 174.5,108.5C 174.5,107.833 174.5,107.167 174.5,106.5 Z"/></g>
<g><path style="opacity:0.99" fill="#393b39" d="M 425.5,110.5 C 425.427,112.027 426.094,113.027 427.5,113.5C 429.695,121.109 426.861,125.443 419,126.5C 411.247,125.014 408.58,120.347 411,112.5C 415.303,108.052 420.136,107.385 425.5,110.5 Z"/></g>
<g><path style="opacity:0.18" fill="#49544a" d="M 570.5,103.5 C 570.522,141.011 570.522,178.345 570.5,215.5C 569.167,178.167 569.167,140.833 570.5,103.5 Z"/></g>
<g><path style="opacity:0.106" fill="#aab6aa" d="M 425.5,110.5 C 426.906,110.973 427.573,111.973 427.5,113.5C 426.094,113.027 425.427,112.027 425.5,110.5 Z"/></g>
<g><path style="opacity:0.063" fill="#e0ece0" d="M 476.5,103.5 C 481.234,102.176 486.067,102.176 491,103.5C 491.831,135.003 491.664,166.336 490.5,197.5C 490.667,166.498 490.5,135.498 490,104.5C 485.599,103.533 481.099,103.2 476.5,103.5 Z"/></g>
<g><path style="opacity:0.882" fill="#8ed37e" d="M 113.5,120.5 C 114.713,121.497 114.546,122.497 113,123.5C 112.501,127.821 112.334,132.154 112.5,136.5C 139.167,136.5 165.833,136.5 192.5,136.5C 192.608,131.13 192.275,125.797 191.5,120.5C 192.558,121.6 193.392,122.934 194,124.5C 194.179,128.025 194.679,131.359 195.5,134.5C 195.5,135.167 195.5,135.833 195.5,136.5C 167.719,138.392 140.052,139.058 112.5,138.5C 110.953,136.193 110.287,133.527 110.5,130.5C 110.08,126.626 111.08,123.293 113.5,120.5 Z"/></g>
<g><path style="opacity:0.982" fill="#383838" d="M 412.5,135.5 C 417.43,135.197 422.263,135.531 427,136.5C 427.828,163.072 427.661,189.572 426.5,216C 421.581,216.802 416.748,216.635 412,215.5C 411.176,188.761 411.343,162.095 412.5,135.5 Z"/></g>
<g><path style="opacity:0.306" fill="#bcdab6" d="M 195.5,136.5 C 195.586,137.496 195.252,138.329 194.5,139C 166.997,139.83 139.664,139.664 112.5,138.5C 140.052,139.058 167.719,138.392 195.5,136.5 Z"/></g>
<g><path style="opacity:0.969" fill="#353535" d="M 476.5,103.5 C 481.099,103.2 485.599,103.533 490,104.5C 490.5,135.498 490.667,166.498 490.5,197.5C 487.252,211.071 478.586,218.071 464.5,218.5C 451.597,218.099 443.097,211.766 439,199.5C 438.333,183.5 438.333,167.5 439,151.5C 439.566,149.277 440.4,147.277 441.5,145.5C 443.262,144.738 444.262,143.404 444.5,141.5C 453.205,132.36 463.205,130.694 474.5,136.5C 475.167,125.341 475.833,114.341 476.5,103.5 Z M 463.5,147.5 C 468.503,147.756 472.003,150.089 474,154.5C 475.586,167.11 475.92,179.776 475,192.5C 473.686,201.585 468.519,204.752 459.5,202C 457.43,201.052 455.93,199.552 455,197.5C 453.02,183.161 453.02,168.828 455,154.5C 456.715,150.697 459.548,148.364 463.5,147.5 Z"/></g>
<g><path style="opacity:0.959" fill="#363736" d="M 632.5,193.5 C 633.488,192.205 634.488,190.872 635.5,189.5C 639.702,189.183 643.702,189.517 647.5,190.5C 647.557,191.609 647.89,192.609 648.5,193.5C 647.634,204.858 641.967,212.692 631.5,217C 618.367,220.675 608.034,217.175 600.5,206.5C 600.715,204.821 600.048,203.821 598.5,203.5C 598.291,202.078 597.791,200.745 597,199.5C 596.333,183.167 596.333,166.833 597,150.5C 605.538,134.43 618.371,129.597 635.5,136C 646.503,142.313 651.003,151.813 649,164.5C 646.318,175.845 639.152,182.345 627.5,184C 622.511,184.499 617.511,184.666 612.5,184.5C 612.334,188.846 612.501,193.179 613,197.5C 618.587,203.784 624.587,204.118 631,198.5C 632.009,196.975 632.509,195.308 632.5,193.5 Z M 614.5,170.5 C 612.652,166.146 611.985,161.48 612.5,156.5C 613.513,151.382 616.679,148.382 622,147.5C 632.047,149.674 635.38,155.674 632,165.5C 630.59,166.787 629.09,167.954 627.5,169C 623.083,169.228 618.75,169.728 614.5,170.5 Z"/></g>
<g><path style="opacity:0.98" fill="#363736" d="M 540.5,102.5 C 545.322,101.935 549.822,102.601 554,104.5C 554.667,135.167 554.667,165.833 554,196.5C 551.576,210.751 543.076,218.085 528.5,218.5C 512.374,217.237 503.541,208.57 502,192.5C 501.333,180.833 501.333,169.167 502,157.5C 503.578,142.755 511.745,134.422 526.5,132.5C 530.847,132.917 534.847,134.25 538.5,136.5C 539.187,125.106 539.854,113.773 540.5,102.5 Z M 534.5,149.5 C 535.167,150.833 536.167,151.833 537.5,152.5C 537.892,154.179 538.392,155.846 539,157.5C 539.667,169.833 539.667,182.167 539,194.5C 534.975,202.972 528.808,204.805 520.5,200C 518.996,198.509 518.163,196.676 518,194.5C 517.333,181.833 517.333,169.167 518,156.5C 518.731,154.101 519.898,151.935 521.5,150C 523.871,149.265 526.205,148.432 528.5,147.5C 530.45,148.372 532.45,149.039 534.5,149.5 Z"/></g>
<g><path style="opacity:0.129" fill="#a7a7a7" d="M 444.5,141.5 C 444.262,143.404 443.262,144.738 441.5,145.5C 441.738,143.596 442.738,142.262 444.5,141.5 Z"/></g>
<g><path style="opacity:0.243" fill="#a4a6a4" d="M 534.5,149.5 C 536.5,149.5 537.5,150.5 537.5,152.5C 536.167,151.833 535.167,150.833 534.5,149.5 Z"/></g>
<g><path style="opacity:0.975" fill="#373838" d="M 686.5,134.5 C 690.007,133.994 693.174,134.66 696,136.5C 696.667,140.167 696.667,143.833 696,147.5C 695.5,148 695,148.5 694.5,149C 681.084,147.254 674.418,153.087 674.5,166.5C 674.739,170.508 675.072,174.508 675.5,178.5C 674.771,190.821 674.271,203.155 674,215.5C 669.587,216.632 665.087,216.799 660.5,216C 659.839,206.075 659.506,196.075 659.5,186C 659.39,174.454 659.89,162.954 661,151.5C 666.126,140.692 674.626,135.025 686.5,134.5 Z"/></g>
<g><path style="opacity:0.012" fill="#f8f8f8" d="M 612.5,156.5 C 611.985,161.48 612.652,166.146 614.5,170.5C 613.5,170.5 612.5,170.5 611.5,170.5C 611.181,165.637 611.514,160.97 612.5,156.5 Z"/></g>
<g><path style="opacity:0.2" fill="#c5e0ba" d="M 165.5,163.5 C 158.52,162.835 151.52,162.502 144.5,162.5C 151.579,160.041 158.579,160.375 165.5,163.5 Z"/></g>
<g><path style="opacity:0.798" fill="#7a7c79" d="M 392.5,165.5 C 390.806,167.861 388.806,169.861 386.5,171.5C 385.957,171.44 385.624,171.107 385.5,170.5C 387.297,169.305 388.297,167.638 388.5,165.5C 389.833,165.5 391.167,165.5 392.5,165.5 Z"/></g>
<g><path style="opacity:0.216" fill="#a9d7a2" d="M 165.5,163.5 C 169.071,164.929 171.738,167.263 173.5,170.5C 171.405,169.588 169.405,168.421 167.5,167C 166.177,166.184 165.511,165.017 165.5,163.5 Z"/></g>
<g><path style="opacity:0.114" fill="#c9c9c9" d="M 359.5,174.5 C 363.167,173.167 366.833,173.167 370.5,174.5C 366.933,174.558 363.266,174.558 359.5,174.5 Z"/></g>
<g><path style="opacity:0.251" fill="#acd49e" d="M 174.5,171.5 C 176.506,175.328 177.84,179.495 178.5,184C 178.43,184.765 178.097,185.265 177.5,185.5C 176.503,180.855 175.503,176.189 174.5,171.5 Z"/></g>
<g><path style="opacity:1" fill="#65c456" d="M 143.5,162.5 C 143.833,162.5 144.167,162.5 144.5,162.5C 151.52,162.502 158.52,162.835 165.5,163.5C 165.511,165.017 166.177,166.184 167.5,167C 169.405,168.421 171.405,169.588 173.5,170.5C 174.167,170.5 174.5,170.833 174.5,171.5C 175.503,176.189 176.503,180.855 177.5,185.5C 177.5,186.5 177.5,187.5 177.5,188.5C 176.603,189.598 175.77,189.598 175,188.5C 174.506,190.134 174.34,191.801 174.5,193.5C 173.127,193.343 171.793,193.51 170.5,194C 170.957,194.414 171.291,194.914 171.5,195.5C 168.839,197.158 166.173,198.824 163.5,200.5C 162.614,201.325 162.281,202.325 162.5,203.5C 162.672,204.492 162.338,205.158 161.5,205.5C 159.824,206.183 159.157,207.517 159.5,209.5C 154.805,208.741 150.138,208.408 145.5,208.5C 144.369,206.926 144.202,205.259 145,203.5C 147.201,201.726 148.368,199.393 148.5,196.5C 151.5,193.833 154.5,191.167 157.5,188.5C 159.232,185.961 160.232,182.961 160.5,179.5C 158.239,174.892 154.572,173.392 149.5,175C 147.808,176.401 147.141,178.234 147.5,180.5C 142.28,181.631 137.113,181.631 132,180.5C 131.21,177.366 131.543,174.366 133,171.5C 136.029,168.572 139.529,166.572 143.5,165.5C 143.5,164.5 143.5,163.5 143.5,162.5 Z"/></g>
<g><path style="opacity:0.561" fill="#9bd18a" d="M 157.5,188.5 C 159.059,184.641 158.725,180.974 156.5,177.5C 152.603,175.953 149.603,176.953 147.5,180.5C 147.141,178.234 147.808,176.401 149.5,175C 154.572,173.392 158.239,174.892 160.5,179.5C 160.232,182.961 159.232,185.961 157.5,188.5 Z"/></g>
<g><path style="opacity:0.18" fill="#9cce92" d="M 241.5,186.5 C 240.85,186.804 240.183,187.137 239.5,187.5C 236.696,185.862 234.029,184.029 231.5,182C 226.633,181.36 221.966,181.86 217.5,183.5C 224.255,179.687 231.255,179.52 238.5,183C 239.71,184.039 240.71,185.206 241.5,186.5 Z"/></g>
<g><path style="opacity:0.145" fill="#9fd091" d="M 143.5,162.5 C 143.5,163.5 143.5,164.5 143.5,165.5C 139.529,166.572 136.029,168.572 133,171.5C 131.543,174.366 131.21,177.366 132,180.5C 137.113,181.631 142.28,181.631 147.5,180.5C 145.987,182.241 143.987,183.241 141.5,183.5C 137.605,182.94 133.772,182.274 130,181.5C 129.08,171.347 133.58,165.013 143.5,162.5 Z"/></g>
<g><path style="opacity:1" fill="#8dcd83" d="M 98.5,198.5 C 98.5,199.167 98.5,199.833 98.5,200.5C 97.037,197.797 96.2037,194.797 96,191.5C 94.5093,189.996 92.676,189.163 90.5,189C 89.5,187.333 88.5,185.667 87.5,184C 83.5787,183.797 79.7454,183.297 76,182.5C 72.0263,185.128 68.0263,187.795 64,190.5C 63,192.5 62,194.5 61,196.5C 61.0936,200.633 60.2603,204.299 58.5,207.5C 58.6005,203.669 58.7672,199.669 59,195.5C 59.7542,192.316 61.2542,189.649 63.5,187.5C 65.8333,187.167 67.1667,185.833 67.5,183.5C 78.2977,177.943 87.9644,179.609 96.5,188.5C 98.1837,191.612 98.8503,194.946 98.5,198.5 Z"/></g>
<g><path style="opacity:1" fill="#62c454" d="M 98.5,200.5 C 98.4203,205.814 98.0869,211.147 97.5,216.5C 96.325,216.281 95.325,216.614 94.5,217.5C 95.2458,218.736 95.5792,220.07 95.5,221.5C 95.5,221.833 95.5,222.167 95.5,222.5C 94.2488,224.382 93.0821,226.382 92,228.5C 91.3333,229.833 91.3333,231.167 92,232.5C 96.9702,236.129 101.47,240.129 105.5,244.5C 115.284,245.065 119.618,250.232 118.5,260C 118.453,262.295 117.787,264.129 116.5,265.5C 90.8333,265.5 65.1667,265.5 39.5,265.5C 38.5139,261.03 38.1805,256.363 38.5,251.5C 38.5,251.167 38.5,250.833 38.5,250.5C 40.8031,248.675 43.1364,246.842 45.5,245C 51.3142,243.769 55.6475,240.602 58.5,235.5C 62.8696,234.959 64.8696,232.459 64.5,228C 63.1227,220.866 61.1227,214.033 58.5,207.5C 60.2603,204.299 61.0936,200.633 61,196.5C 62,194.5 63,192.5 64,190.5C 68.0263,187.795 72.0263,185.128 76,182.5C 79.7454,183.297 83.5787,183.797 87.5,184C 88.5,185.667 89.5,187.333 90.5,189C 92.676,189.163 94.5093,189.996 96,191.5C 96.2037,194.797 97.037,197.797 98.5,200.5 Z"/></g>
<g><path style="opacity:0.063" fill="#d8efd7" d="M 67.5,183.5 C 67.1667,185.833 65.8333,187.167 63.5,187.5C 64.5,185.833 65.8333,184.5 67.5,183.5 Z"/></g>
<g><path style="opacity:0.612" fill="#9ad48e" d="M 217.5,183.5 C 217.291,184.922 216.791,186.255 216,187.5C 213.21,190.116 210.71,192.782 208.5,195.5C 209.26,189.75 212.26,185.75 217.5,183.5 Z"/></g>
<g><path style="opacity:1" fill="#62c454" d="M 241.5,186.5 C 242.391,188.609 243.558,190.609 245,192.5C 245.499,197.489 245.666,202.489 245.5,207.5C 244.5,207.5 243.5,207.5 242.5,207.5C 242.5,208.5 242.5,209.5 242.5,210.5C 244.635,210.147 245.968,210.98 246.5,213C 242.132,219.867 240.465,227.367 241.5,235.5C 244.833,236.167 248.167,236.833 251.5,237.5C 254.363,242.046 258.363,245.379 263.5,247.5C 264.107,247.376 264.44,247.043 264.5,246.5C 264.833,246.5 265.167,246.5 265.5,246.5C 267.351,253.251 267.684,260.251 266.5,267.5C 240.436,267.973 214.436,267.473 188.5,266C 184.335,255.152 187.669,248.152 198.5,245C 201.255,243.289 203.589,241.122 205.5,238.5C 208.768,237.513 212.102,237.18 215.5,237.5C 215.666,233.154 215.499,228.821 215,224.5C 214.075,223.953 213.242,223.287 212.5,222.5C 212.017,219.213 210.85,216.213 209,213.5C 208.731,210.873 208.564,208.54 208.5,206.5C 208.5,203.167 208.5,199.833 208.5,196.5C 208.5,196.167 208.5,195.833 208.5,195.5C 210.71,192.782 213.21,190.116 216,187.5C 216.791,186.255 217.291,184.922 217.5,183.5C 221.966,181.86 226.633,181.36 231.5,182C 234.029,184.029 236.696,185.862 239.5,187.5C 240.183,187.137 240.85,186.804 241.5,186.5 Z"/></g>
<g><path style="opacity:0.018" fill="#dededd" d="M 635.5,189.5 C 634.488,190.872 633.488,192.205 632.5,193.5C 632.088,191.027 633.088,189.694 635.5,189.5 Z"/></g>
<g><path style="opacity:0.004" fill="#dddddd" d="M 647.5,190.5 C 649.382,191.221 649.715,192.221 648.5,193.5C 647.89,192.609 647.557,191.609 647.5,190.5 Z"/></g>
<g><path style="opacity:0.004" fill="#f6f9f6" d="M 208.5,196.5 C 208.5,199.833 208.5,203.167 208.5,206.5C 207.833,206.5 207.167,206.5 206.5,206.5C 207.097,203.059 207.763,199.725 208.5,196.5 Z"/></g>
<g><path style="opacity:0.314" fill="#9ad090" d="M 177.5,188.5 C 174.833,195.833 169.833,200.833 162.5,203.5C 162.281,202.325 162.614,201.325 163.5,200.5C 166.173,198.824 168.839,197.158 171.5,195.5C 171.291,194.914 170.957,194.414 170.5,194C 171.793,193.51 173.127,193.343 174.5,193.5C 174.34,191.801 174.506,190.134 175,188.5C 175.77,189.598 176.603,189.598 177.5,188.5 Z"/></g>
<g><path style="opacity:0.055" fill="#9ea09f" d="M 598.5,203.5 C 600.048,203.821 600.715,204.821 600.5,206.5C 599.599,205.71 598.932,204.71 598.5,203.5 Z"/></g>
<g><path style="opacity:0.929" fill="#7f827f" d="M 382.5,204.5 C 383.309,205.469 384.309,206.302 385.5,207C 384.748,207.671 384.414,208.504 384.5,209.5C 383.069,208.22 382.402,206.553 382.5,204.5 Z"/></g>
<g><path style="opacity:0.165" fill="#b7d6aa" d="M 247.5,205.5 C 250.011,209.142 250.011,212.808 247.5,216.5C 247.5,212.833 247.5,209.167 247.5,205.5 Z"/></g>
<g><path style="opacity:0.71" fill="#94d487" d="M 148.5,196.5 C 148.368,199.393 147.201,201.726 145,203.5C 144.202,205.259 144.369,206.926 145.5,208.5C 150.138,208.408 154.805,208.741 159.5,209.5C 159.157,207.517 159.824,206.183 161.5,205.5C 161.371,207.216 161.038,208.883 160.5,210.5C 159.272,211.306 158.272,212.306 157.5,213.5C 157.38,212.414 156.713,211.747 155.5,211.5C 154.584,211.543 153.917,211.876 153.5,212.5C 143.241,214.395 140.074,210.395 144,200.5C 145.371,198.959 146.871,197.625 148.5,196.5 Z"/></g>
<g><path style="opacity:0.005" fill="#fafafa" d="M 160.5,210.5 C 160.483,212.565 160.15,214.565 159.5,216.5C 158.292,215.766 156.959,215.433 155.5,215.5C 156.167,214.833 156.833,214.167 157.5,213.5C 158.272,212.306 159.272,211.306 160.5,210.5 Z"/></g>
<g><path style="opacity:0.031" fill="#bed0be" d="M 153.5,212.5 C 153.917,211.876 154.584,211.543 155.5,211.5C 156.713,211.747 157.38,212.414 157.5,213.5C 156.041,213.567 154.708,213.234 153.5,212.5 Z"/></g>
<g><path style="opacity:0.078" fill="#a7a8a7" d="M 384.5,209.5 C 385.979,211.678 387.312,214.012 388.5,216.5C 387.504,216.586 386.671,216.252 386,215.5C 385.495,213.482 384.995,211.482 384.5,209.5 Z"/></g>
<g><path style="opacity:0.906" fill="#b2dcaa" d="M 98.5,198.5 C 102.044,206.776 101.044,214.443 95.5,221.5C 95.5792,220.07 95.2458,218.736 94.5,217.5C 95.325,216.614 96.325,216.281 97.5,216.5C 98.0869,211.147 98.4203,205.814 98.5,200.5C 98.5,199.833 98.5,199.167 98.5,198.5 Z"/></g>
<g><path style="opacity:0.006" fill="#fefffe" d="M 244.5,221.5 C 244.167,224.833 243.833,228.167 243.5,231.5C 242.135,228.041 242.469,224.708 244.5,221.5 Z"/></g>
<g><path style="opacity:1" fill="#68c459" d="M 144.5,215.5 C 148.167,215.5 151.833,215.5 155.5,215.5C 156.959,215.433 158.292,215.766 159.5,216.5C 159.448,220.198 159.114,223.865 158.5,227.5C 154.192,228.368 149.859,228.534 145.5,228C 143.331,223.985 142.998,219.818 144.5,215.5 Z"/></g>
<g><path style="opacity:0.231" fill="#8dcc7c" d="M 241.5,186.5 C 245.257,187.767 247.424,190.434 248,194.5C 248.755,198.255 248.589,201.922 247.5,205.5C 247.5,209.167 247.5,212.833 247.5,216.5C 246.89,218.434 245.89,220.101 244.5,221.5C 242.469,224.708 242.135,228.041 243.5,231.5C 245.884,233.885 248.55,235.885 251.5,237.5C 248.167,236.833 244.833,236.167 241.5,235.5C 240.465,227.367 242.132,219.867 246.5,213C 245.968,210.98 244.635,210.147 242.5,210.5C 242.5,209.5 242.5,208.5 242.5,207.5C 243.5,207.5 244.5,207.5 245.5,207.5C 245.666,202.489 245.499,197.489 245,192.5C 243.558,190.609 242.391,188.609 241.5,186.5 Z"/></g>
<g><path style="opacity:0.075" fill="#a1d299" d="M 58.5,207.5 C 61.1227,214.033 63.1227,220.866 64.5,228C 64.8696,232.459 62.8696,234.959 58.5,235.5C 61.6233,233.862 63.29,231.195 63.5,227.5C 61.9274,222.75 60.0941,218.084 58,213.5C 57.2109,211.288 57.3775,209.288 58.5,207.5 Z"/></g>
<g><path style="opacity:0.678" fill="#9fd295" d="M 144.5,215.5 C 142.998,219.818 143.331,223.985 145.5,228C 149.859,228.534 154.192,228.368 158.5,227.5C 159.114,223.865 159.448,220.198 159.5,216.5C 160.643,219.976 160.81,223.642 160,227.5C 154.614,231.136 148.947,231.47 143,228.5C 142.333,224.5 142.333,220.5 143,216.5C 143.383,215.944 143.883,215.611 144.5,215.5 Z"/></g>
<g><path style="opacity:0.998" fill="#a5d898" d="M 206.5,206.5 C 207.167,206.5 207.833,206.5 208.5,206.5C 208.564,208.54 208.731,210.873 209,213.5C 210.85,216.213 212.017,219.213 212.5,222.5C 213.242,223.287 214.075,223.953 215,224.5C 215.499,228.821 215.666,233.154 215.5,237.5C 212.102,237.18 208.768,237.513 205.5,238.5C 203.589,241.122 201.255,243.289 198.5,245C 187.669,248.152 184.335,255.152 188.5,266C 214.436,267.473 240.436,267.973 266.5,267.5C 239.98,268.802 213.313,268.802 186.5,267.5C 185.158,261.447 185.325,255.447 187,249.5C 194.4,243.548 202.233,238.215 210.5,233.5C 211.473,231.608 212.14,229.608 212.5,227.5C 211.474,223.116 209.641,219.116 207,215.5C 206.502,212.518 206.335,209.518 206.5,206.5 Z"/></g>
<g><path style="opacity:0.82" fill="#97d38e" d="M 58.5,235.5 C 55.6475,240.602 51.3142,243.769 45.5,245C 43.1364,246.842 40.8031,248.675 38.5,250.5C 40.2391,247.59 42.5724,245.09 45.5,243C 49.9968,240.644 54.3302,238.144 58.5,235.5 Z"/></g>
<g><path style="opacity:0.059" fill="#97ca8a" d="M 251.5,237.5 C 256.132,240.143 260.465,243.143 264.5,246.5C 264.44,247.043 264.107,247.376 263.5,247.5C 258.363,245.379 254.363,242.046 251.5,237.5 Z"/></g>
<g><path style="opacity:1" fill="#86c97b" d="M 95.5,222.5 C 94.6239,225.799 94.4572,229.132 95,232.5C 102.667,237.5 110.333,242.5 118,247.5C 120.46,253.245 121.127,259.245 120,265.5C 119.722,266.416 119.222,267.082 118.5,267.5C 97.5,267.5 76.5,267.5 55.5,267.5C 75.8333,266.833 96.1667,266.167 116.5,265.5C 117.787,264.129 118.453,262.295 118.5,260C 119.618,250.232 115.284,245.065 105.5,244.5C 101.47,240.129 96.9702,236.129 92,232.5C 91.3333,231.167 91.3333,229.833 92,228.5C 93.0821,226.382 94.2488,224.382 95.5,222.5 Z"/></g>
<g><path style="opacity:0.114" fill="#9dcd8c" d="M 265.5,246.5 C 267.984,248.12 269.484,250.453 270,253.5C 270.564,258.194 270.397,262.86 269.5,267.5C 268.5,267.5 267.5,267.5 266.5,267.5C 267.684,260.251 267.351,253.251 265.5,246.5 Z"/></g>
<g><path style="opacity:0.184" fill="#c1e2b9" d="M 38.5,251.5 C 38.1805,256.363 38.5139,261.03 39.5,265.5C 40.2625,266.268 41.2625,266.768 42.5,267C 46.8206,267.499 51.1539,267.666 55.5,267.5C 76.5,267.5 97.5,267.5 118.5,267.5C 92.3365,268.663 66.0032,268.83 39.5,268C 37.3789,265.107 36.3789,261.774 36.5,258C 36.336,255.456 37.0027,253.29 38.5,251.5 Z"/></g>
<g><path style="opacity:0.785" fill="#6cbe5c" d="M 39.5,265.5 C 65.1667,265.5 90.8333,265.5 116.5,265.5C 96.1667,266.167 75.8333,266.833 55.5,267.5C 51.1539,267.666 46.8206,267.499 42.5,267C 41.2625,266.768 40.2625,266.268 39.5,265.5 Z"/></g>
</svg>
